Patient4_TMGait_0pt6_02_right_24_EMG.mot
version=1
nRows=20
nColumns=33
inDegrees=no
endheader
time	1LAddLong	2LGlutMax	3LGlutMed	4LIliopsoas	5LSemiMemb	6LBicFemLong	7LRecFem	8LVastMed	9LVastLat	10LGasMed	11LTibAnt	12lTibPost	13LPeroneusLong	14LSol	15LExtDigLong	16LFlexDigLong	17RAddLong	18RGlutMax	19RGlutMed	20RIliopsoas	21RSemiMemb	22RBicFemLong	23RRecFem	24RVastMed	25RVastLat	26RGasMed	27RTibAnt	28RTibPost	29RPeroneusLong	30RSol	31RExtDigLong	32RFlexDigLong
29.187	-0.012512	-0.76706	-0.033722	-0.003052	0.010681	-0.050354	0.38589	-0.007172	0.10666	-0.033417	-0.010986	0.001984	-0.085144	0.29923	0.2945	-0.003662	-0.045624	-0.8223	-0.57053	-0.018463	0.19318	-0.064392	1.1336	0.031738	-0.20721	-0.036011	0.026398	-0.37506	0.23132	-0.57083	-0.002747	-0.005646
29.188	-0.016174	-0.69031	-0.034943	0.009155	0.007324	-0.042877	0.32867	-0.014191	0.098267	-0.022278	-0.12756	0.008392	-0.17746	0.31204	0.37354	-0.001221	-0.009766	-0.87067	-0.6662	-0.017548	0.041199	-0.050964	1.1281	-0.082855	-0.13473	-0.022583	0.031128	-0.08606	0.12283	-0.47241	-0.002899	-0.004578
29.189	-0.018463	-0.62775	-0.025482	0.002441	0.007172	-0.041351	0.23224	-0.00412	0.12024	-0.049286	-0.35309	0.010223	-0.11444	0.3064	0.78156	-0.024109	0.01358	-0.87372	-0.76599	-0.011749	0.18982	-0.1471	1.203	-0.011444	-0.15015	-0.012054	0.041046	0.21393	-0.069733	-0.088043	0.007477	0.001526
29.19	-0.011902	-0.63309	-0.00885	-0.019531	0.003662	-0.041504	0.18799	-0.006561	0.13641	-0.089874	-0.19684	0.0177	0.01297	0.3096	-0.52338	-0.036469	0.045776	-1.0394	-0.69534	0.037384	0.36987	-0.38391	1.0963	0.15274	-0.20416	-0.002594	0.058899	0.21805	-0.15533	-0.001526	-0.004578	0.000763
29.191	-0.013733	-0.57342	0.008545	0.024719	0.010071	-0.026398	0.1561	-0.008698	0.1471	-0.097198	-0.13748	0.023193	0.042725	0.12161	-1.0138	-0.037079	0.046539	-1.263	0.24521	0.045013	0.14191	-0.4277	0.69488	0.076447	-0.18112	0.005188	0.032196	0.073242	-0.11368	0.32105	-0.005188	0.000458
29.192	-0.00946	-0.47348	0.010529	0.025024	0.003967	-0.026703	0.099487	-0.005646	0.14465	-0.077515	0.006409	0.002441	-0.069122	-0.062256	-0.64468	-0.032349	0.045471	-1.3492	-0.50507	0.044403	-0.25833	-0.2214	0.23621	-0.30273	0.35797	0.00473	0.031128	-0.16296	-0.084686	0.41367	-0.00473	0.007629
29.193	-0.002594	-0.35996	0.001373	0.025177	0.006104	-0.030823	0.018463	-0.00061	0.15076	-0.072784	0.11643	-0.010681	-0.11398	-0.063324	0.050507	-0.024872	-0.012512	-1.2976	-0.84259	0.06897	-0.45853	-0.07019	-0.68222	-0.16663	0.92316	0.002136	0.039673	-0.045319	-0.12604	0.15747	-0.003967	0.007172
29.194	0.005035	-0.19547	0.011902	0.000763	0.005188	-0.025635	-0.065002	-0.004425	0.14053	-0.058746	0.10315	0.005951	-0.12772	-0.012665	0.086517	-0.040894	-0.02655	-1.263	-0.86639	0.014038	-0.22964	-0.088043	-0.91003	0.16083	1.0394	0.005798	0.065155	0.14771	-0.18295	0.088959	-0.003052	0.001221
29.195	0.010834	-0.09964	0.033264	-0.003662	0.008545	-0.018921	-0.18814	-0.007324	0.1088	-0.062561	-0.13748	-0.004425	-0.019684	0.06897	-0.15686	-0.042114	-0.029297	-1.2828	-0.55618	0.000458	0.12955	-0.1828	-0.41153	0.27802	0.56778	-0.003967	0.085449	0.06134	-0.1831	0.18433	-0.000916	-0.006409
29.196	0.013733	0.013733	0.041046	-0.009003	-0.000153	-0.023041	-0.2681	-0.004272	0.086975	-0.067749	-0.32425	0.000916	0.001984	0.085907	-0.27695	-0.040436	-0.047302	-1.3419	0.24139	-0.050659	0.13825	-0.2803	0.10117	0.005646	-0.002289	-0.014343	0.083771	0.012207	-0.1387	-0.050354	-0.00061	-0.011902
29.197	0.006714	0.13092	0.029602	-0.024872	-0.003052	-0.010834	-0.19211	-0.001068	0.077515	-0.065613	-0.38986	-0.007629	-0.001373	0.000916	-0.48309	-0.041962	-0.095673	-1.5605	0.58655	-0.02121	-0.073547	-0.11139	0.3038	0.15671	-0.31876	-0.000305	0.031281	-0.000153	-0.04303	-0.19531	-0.009766	-0.015259
29.198	-0.006714	0.26855	0.04715	-0.015259	-0.00473	-0.016327	-0.16357	-0.009308	0.074768	-0.067749	-0.26566	-0.012817	0.014954	0.035248	-0.57739	-0.056152	-0.085297	-1.6626	1.0078	-0.077362	-0.16281	-0.06485	0.28656	0.2124	-0.66757	0.005646	-0.017548	-0.003052	0.033264	-0.18082	-0.004425	-0.004883
29.199	-0.010071	0.41351	0.055542	0.011444	-0.007935	-0.014801	-0.10849	-0.010223	0.050507	-0.06012	-0.26489	-0.006561	-0.014191	0.081024	-0.439	-0.058899	-0.03952	-1.6916	-0.11887	-0.024872	0.040131	-0.17944	-0.12772	0.23331	-0.63355	0.018616	-0.033569	-0.007324	0.08606	-0.05722	-0.00412	-0.003204
29.2	-0.015564	0.57617	0.052643	-0.016785	0.002136	-0.036774	-0.081482	-0.009308	0.017242	-0.035706	-0.26749	-0.011749	-0.048828	-0.04425	-0.18539	-0.053406	-0.020599	-1.7911	-0.41458	0.080109	0.25635	-0.28839	-0.66559	0.24124	-0.6337	0.011292	-0.033875	-0.024567	0.21988	-0.094757	-0.004425	-0.00412
29.201	-0.009308	0.75882	0.054321	-0.028381	-0.004883	-0.015564	0.035706	-0.004883	0.015411	-0.02243	-0.022888	-0.012817	-0.08255	-0.14694	0.072021	-0.050354	0.027008	-1.7409	0.25772	0.030975	0.12589	-0.36118	-0.5188	0.16159	-0.61996	0.007172	0.027008	-0.01709	0.19821	-0.01297	-0.007782	-0.007782
29.202	-0.005798	0.89737	0.054016	-0.011444	0.000916	-0.033417	0.21194	-0.006104	-0.001831	-0.030823	0.023804	-0.017853	-0.094299	-0.1239	0.56168	-0.04837	0.037842	-1.8919	0.42877	-0.031128	-0.032349	-0.14648	-0.44739	0.006866	-0.43778	0.010376	0.040894	-0.002899	0.10635	-0.16403	-0.003662	-0.01709
29.203	-0.00946	1.048	0.052185	0.029602	-0.012054	-0.031891	0.25848	-0.002136	-0.019226	-0.001831	0.10284	-0.010223	-0.21622	-0.093994	0.54565	-0.050507	0.021667	-2.0438	-0.62958	-0.098419	-0.24719	0.079803	-0.43503	-0.13351	-0.084686	0.007477	0.027313	0.009155	-0.073395	0.064545	-0.003662	-0.018005
29.204	-0.01236	1.1807	0.065002	0.042267	0.013733	-0.037231	0.24139	-0.008698	-0.030518	0	0.13763	-0.027924	-0.17136	-0.090942	0.72052	-0.038147	0.047607	-2.0541	-0.90485	-0.08255	-0.053864	0.10681	-0.17349	-0.45303	0.054016	-0.008545	0.051575	0.000153	-0.19882	0.41016	-0.001526	-0.018158
29.205	-0.010529	1.2527	0.037537	0.010986	0.002747	-0.034943	0.10956	0.014954	-0.029907	-0.024414	0.2623	-0.019531	-0.094757	0.009003	0.60303	-0.031128	0.036316	-2.0044	-0.74432	-0.070648	0.24841	0.12146	0.009308	-0.54871	0.071411	-0.013733	-0.00824	-0.090637	-0.15457	0.4245	-0.002747	-0.015717
29.206	-0.00824	1.3783	0.040436	-0.035706	0.010376	-0.033569	-0.076904	0.018005	-0.044708	-0.059662	0.070496	-0.02121	-0.05188	0.028076	0.52048	-0.014648	0.007629	-1.8242	-0.60547	-0.032349	0.27237	0.007324	0.065918	-0.41184	0.024872	-0.010681	-0.008545	-0.048523	-0.15228	0.06073	-0.003052	-0.006561
